# xmcd
#
# Track frame offsets: 
#        150
#        17087
#        38310
#        59515
#        87907
#        106205
#        125470
#        147412
#        161425
#
# Disc length: 2389 seconds
#
# Revision: 0
# Processed by: cddbd v1.5.1PL0 Copyright (c) Steve Scherf et al.
# Submitted via: ExactAudioCopy v0.95a5
#
DISCID=6c095309
DTITLE=Boa and The Constrictors - Snake Eyes
DYEAR=1900
DGENRE=Blues
TTITLE0=Electra Glide
TTITLE1=Buzzard Luck
TTITLE2=Me& My Baby Got Somethin' Goin' On
TTITLE3=Hard Rockin' Woman
TTITLE4=Trouble No More
TTITLE5=I Don't Recall
TTITLE6=Takin' Matters Into My Own Hands
TTITLE7=No Good Woman
TTITLE8=Candy
EXTD=
EXTT0=
EXTT1=
EXTT2=
EXTT3=
EXTT4=
EXTT5=
EXTT6=
EXTT7=
EXTT8=
PLAYORDER=
